PathFileType	4	(X/Y/Z)	./resultDataOpenSim/trcMotMarkerGrf/sub06/qtm-03-07.trc
DataRate	CameraRate	NumFrames	NumMarkers	Units	OrigDataRate	OrigDataStartFrame	OrigNumFrames
250.000000	250.000000	5	24	m	250.000000	62	488
Frame#	Time	L.Toe.Tip			R.Toe.Tip			L.Ankle.Lat			R.Ankle.Lat			L.Ankle.Med			R.Ankle.Med			L.Heel			R.Heel			L.Knee.Lat			R.Knee.Lat			L.Knee.Med			R.Knee.Med			L.Thigh.Upper			R.Thigh.Upper			L.ASIS			R.ASIS			V.Sacral			L.Acromium			R.Acromium			C7			L.Elbow			R.Elbow			L.Wrist.Lat			R.Wrist.Lat
		X1	Y1	Z1	X2	Y2	Z2	X3	Y3	Z3	X4	Y4	Z4	X5	Y5	Z5	X6	Y6	Z6	X7	Y7	Z7	X8	Y8	Z8	X9	Y9	Z9	X10	Y10	Z10	X11	Y11	Z11	X12	Y12	Z12	X13	Y13	Z13	X14	Y14	Z14	X15	Y15	Z15	X16	Y16	Z16	X17	Y17	Z17	X18	Y18	Z18	X19	Y19	Z19	X20	Y20	Z20	X21	Y21	Z21	X22	Y22	Z22	X23	Y23	Z23	X24	Y24	Z24

62	0.244	-1.2292582	0.08262307	-0.049913418	-0.74335127	0.036464387	0.13807748	-1.2371187	0.21115187	-0.078266922	-0.87749069	0.062032355	0.16102923	-1.2204053	0.21694599	0.0030973522	-0.86001318	0.080262246	0.074258715	-1.2884945	0.26562557	-0.03250121	-0.93314366	0.039709023	0.099405676	-0.90222563	0.38246772	-0.099351205	-0.79655234	0.44075352	0.18597851	-0.89902184	0.36998724	0.021171854	-0.82876423	0.42868862	0.062065961	-0.94712665	0.77549682	-0.10465054	-0.9242566	0.79707663	0.23717005	-0.86776478	0.82459349	-0.068328994	-0.84025467	0.84251784	0.17446666	-1.0281145	0.91486745	0.074425894	-0.89860143	1.3208632	-0.11395558	-0.88895848	1.2971415	0.24842965	-0.96944348	1.3520985	0.069455404	-0.91790633	0.99647755	-0.18102113	-0.99334548	0.99706547	0.30241319	-0.71309243	0.85463821	-0.15624893	-0.8808591	0.78609693	0.33896086
63	0.248	-1.2124195	0.082343204	-0.048524833	-0.74339968	0.03647073	0.13807346	-1.2226795	0.21048051	-0.076848539	-0.87754132	0.062114422	0.16111107	-1.2056561	0.21667384	0.0043583163	-0.86010032	0.080418488	0.074299828	-1.2749164	0.26410745	-0.030967917	-0.93315587	0.039845086	0.099401652	-0.88989324	0.38512114	-0.09881474	-0.79527342	0.44076763	0.1860909	-0.88647191	0.37286879	0.022061686	-0.82744291	0.42905678	0.062157394	-0.94092063	0.77779443	-0.10431159	-0.91960154	0.7982738	0.2373524	-0.86160245	0.82671948	-0.067958092	-0.83461582	0.84410098	0.17519864	-1.022369	0.91675643	0.074392588	-0.89300689	1.3229907	-0.11376571	-0.88259862	1.2994056	0.24852667	-0.96332612	1.3540461	0.069734994	-0.91434819	0.99880762	-0.18036958	-0.98557332	0.99877234	0.30320848	-0.7110611	0.85455532	-0.15668749	-0.87055893	0.78891801	0.33907792
64	0.252	-1.1953958	0.081889953	-0.047047501	-0.74344115	0.036477249	0.13804257	-1.2081515	0.20965004	-0.075437294	-0.87755368	0.062196548	0.16117145	-1.1908723	0.21618548	0.0056566083	-0.86017392	0.080582417	0.074334341	-1.2613412	0.26232601	-0.029310139	-0.93322354	0.039937441	0.099444862	-0.87757951	0.38789246	-0.098278714	-0.79407615	0.44077081	0.18616384	-0.87388309	0.37600006	0.023013908	-0.82618177	0.4293768	0.062259667	-0.9346692	0.78010554	-0.1040083	-0.91495363	0.79944343	0.23753813	-0.85539264	0.82885996	-0.067535207	-0.82893134	0.84570109	0.17591431	-1.0169704	0.91865545	0.073778361	-0.887384	1.3251026	-0.11357492	-0.87621759	1.3016561	0.24860224	-0.95720609	1.3559859	0.07003391	-0.91082392	1.001142	-0.17959559	-0.97795263	1.0004525	0.30385945	-0.70914002	0.85448773	-0.15720414	-0.86022436	0.79179103	0.33915428
65	0.256	-1.1780197	0.081301919	-0.045689855	-0.74347814	0.036483766	0.13799145	-1.1935273	0.20865783	-0.074021961	-0.87753236	0.062273348	0.16121114	-1.1761944	0.21547458	0.0070221291	-0.86021731	0.080753643	0.074386812	-1.2477976	0.26025932	-0.027550176	-0.93340509	0.039966331	0.099614138	-0.86527986	0.39076779	-0.097735585	-0.79295546	0.44078337	0.18622159	-0.86112886	0.37930471	0.023962504	-0.8250853	0.42964433	0.06234172	-0.92835851	0.78239538	-0.10380823	-0.91029297	0.80058481	0.23772952	-0.8492268	0.83097609	-0.06715631	-0.82323665	0.84730983	0.17661282	-1.0119663	0.92056729	0.072556009	-0.88171454	1.3271851	-0.1133851	-0.86981014	1.3038924	0.24864917	-0.95108612	1.3579111	0.070350939	-0.90724901	1.0034486	-0.17875581	-0.97049254	1.0021094	0.30438487	-0.70724292	0.85444363	-0.15775882	-0.84985644	0.79471347	0.33919048
66	0.26	-1.1602071	0.080622423	-0.044570907	-0.74350924	0.036487995	0.13792882	-1.1787984	0.20748507	-0.072589158	-0.87749142	0.062331733	0.16122729	-1.1615554	0.21454653	0.00843142	-0.86023212	0.080930511	0.074462292	-1.2342144	0.25785345	-0.025808794	-0.93370629	0.039950102	0.099931477	-0.85301422	0.39372345	-0.097176404	-0.79180923	0.44084158	0.18628431	-0.84825137	0.38264608	0.024816269	-0.8242316	0.42986168	0.062366225	-0.92200156	0.78465273	-0.1038112	-0.90553466	0.80171316	0.23793463	-0.8431759	0.83304459	-0.066898007	-0.8174019	0.84896214	0.17731304	-1.007202	0.92248602	0.071064824	-0.87599203	1.3292349	-0.11319928	-0.86337054	1.3061111	0.2486637	-0.94496681	1.3598101	0.070684847	-0.90350194	1.0057184	-0.17779241	-0.96309997	1.003781	0.30492665	-0.70533592	0.85442324	-0.15834429	-0.83947784	0.7976699	0.33918719
